<svg xmlns="http://www.w3.org/2000/svg" xmlns:xlink="http://www.w3.org/1999/xlink" width="500" zoomAndPan="magnify" viewBox="0 0 375 374.999991" height="500" preserveAspectRatio="xMidYMid meet" version="1.0"><defs><g/><clipPath id="ddbfde0ff3"><path d="M 69.851562 60.6875 L 305.148438 60.6875 L 305.148438 295.988281 L 69.851562 295.988281 Z M 69.851562 60.6875 " clip-rule="nonzero"/></clipPath><clipPath id="dfed4f7a8e"><path d="M 187.5 60.6875 C 122.523438 60.6875 69.851562 113.363281 69.851562 178.335938 C 69.851562 243.3125 122.523438 295.988281 187.5 295.988281 C 252.476562 295.988281 305.148438 243.3125 305.148438 178.335938 C 305.148438 113.363281 252.476562 60.6875 187.5 60.6875 Z M 187.5 60.6875 " clip-rule="nonzero"/></clipPath><clipPath id="25712555cc"><path d="M 0.851562 0.6875 L 236.148438 0.6875 L 236.148438 235.988281 L 0.851562 235.988281 Z M 0.851562 0.6875 " clip-rule="nonzero"/></clipPath><clipPath id="2066c77540"><path d="M 118.5 0.6875 C 53.523438 0.6875 0.851562 53.363281 0.851562 118.335938 C 0.851562 183.3125 53.523438 235.988281 118.5 235.988281 C 183.476562 235.988281 236.148438 183.3125 236.148438 118.335938 C 236.148438 53.363281 183.476562 0.6875 118.5 0.6875 Z M 118.5 0.6875 " clip-rule="nonzero"/></clipPath><clipPath id="3a5642e7a0"><rect x="0" width="237" y="0" height="236"/></clipPath><clipPath id="b2b9db7346"><path d="M 0.265625 105 L 156.738281 105 L 156.738281 205 L 0.265625 205 Z M 0.265625 105 " clip-rule="nonzero"/></clipPath><clipPath id="46376f5e3d"><path d="M 25 0.839844 L 80 0.839844 L 80 5 L 25 5 Z M 25 0.839844 " clip-rule="nonzero"/></clipPath><clipPath id="cba1ad8b24"><rect x="0" width="157" y="0" height="218"/></clipPath><clipPath id="a81c5519a0"><rect x="0" width="182" y="0" height="60"/></clipPath></defs><g clip-path="url(#ddbfde0ff3)"><g clip-path="url(#dfed4f7a8e)"><g transform="matrix(1, 0, 0, 1, 69, 60)"><g clip-path="url(#3a5642e7a0)"><g clip-path="url(#25712555cc)"><g clip-path="url(#2066c77540)"><path fill="#ffd809" d="M 0.851562 0.6875 L 236.148438 0.6875 L 236.148438 235.988281 L 0.851562 235.988281 Z M 0.851562 0.6875 " fill-opacity="1" fill-rule="nonzero"/></g></g></g></g></g></g><g transform="matrix(1, 0, 0, 1, 109, 15)"><g clip-path="url(#cba1ad8b24)"><path fill="#100f0d" d="M 78.566406 174.597656 C 68.710938 174.597656 60.699219 182.855469 60.699219 193.003906 C 60.699219 203.148438 68.710938 211.402344 78.566406 211.402344 C 88.417969 211.402344 96.425781 203.148438 96.425781 193.003906 C 96.425781 182.855469 88.417969 174.597656 78.566406 174.597656 Z M 78.566406 216.5 C 65.914062 216.5 55.621094 205.953125 55.621094 193.003906 C 55.621094 180.042969 65.914062 169.507812 78.566406 169.507812 C 91.214844 169.507812 101.507812 180.042969 101.507812 193.003906 C 101.507812 205.953125 91.214844 216.5 78.566406 216.5 " fill-opacity="1" fill-rule="nonzero"/><path fill="#100f0d" d="M 78.5 110.191406 C 77.097656 110.191406 75.960938 109.050781 75.960938 107.644531 L 75.960938 4.246094 C 75.960938 2.84375 77.097656 1.703125 78.5 1.703125 C 79.902344 1.703125 81.039062 2.84375 81.039062 4.246094 L 81.039062 107.644531 C 81.039062 109.050781 79.902344 110.191406 78.5 110.191406 " fill-opacity="1" fill-rule="nonzero"/><g clip-path="url(#b2b9db7346)"><path fill="#100f0d" d="M 156.09375 192.464844 C 149.371094 171.011719 133.570312 141.828125 96.425781 124.628906 C 93.210938 123.136719 91.140625 119.835938 91.136719 116.210938 L 91.136719 115.863281 C 91.136719 109.933594 86.40625 105.101562 80.589844 105.101562 L 76.410156 105.101562 C 70.597656 105.101562 65.867188 109.933594 65.867188 115.863281 L 65.867188 116.210938 C 65.859375 119.835938 63.789062 123.136719 60.574219 124.621094 C 23.429688 141.828125 7.628906 171.011719 0.90625 192.464844 C 0.304688 194.402344 0.601562 196.480469 1.722656 198.179688 C 2.832031 199.847656 4.59375 200.917969 6.5625 201.101562 C 30.441406 203.347656 54.488281 204.476562 78.527344 204.476562 C 102.558594 204.476562 126.589844 203.347656 150.4375 201.101562 C 152.410156 200.917969 154.167969 199.847656 155.28125 198.179688 C 156.398438 196.480469 156.695312 194.402344 156.09375 192.464844 " fill-opacity="1" fill-rule="nonzero"/></g><g clip-path="url(#46376f5e3d)"><path stroke-linecap="round" transform="matrix(0.996636, 0.000000000000000515, -0.000000000000000515, 0.996636, 25.186172, 0.974294)" fill="none" stroke-linejoin="miter" d="M 2.000243 2.001187 L 52.995993 2.001187 " stroke="#100f0d" stroke-width="4" stroke-opacity="1" stroke-miterlimit="4"/></g></g></g><g transform="matrix(1, 0, 0, 1, 98, 300)"><g clip-path="url(#a81c5519a0)"><g fill="#000000" fill-opacity="1"><g transform="translate(1.215104, 43.878569)"><g><path d="M 7.175781 -33.492188 L 7.175781 -4.785156 L 35.886719 -4.785156 L 35.886719 0 L 2.390625 0 L 2.390625 -33.492188 Z M 7.175781 -33.492188 "/></g></g></g><g fill="#000000" fill-opacity="1"><g transform="translate(39.965441, 43.878569)"><g><path d="M 31.101562 -9.570312 L 31.101562 -33.492188 L 35.886719 -33.492188 L 35.886719 -9.570312 C 35.886719 -7.878906 35.464844 -6.308594 34.617188 -4.855469 C 33.773438 -3.40625 32.625 -2.234375 31.171875 -1.339844 C 29.722656 -0.445312 28.101562 0 26.316406 0 L 11.960938 0 C 10.269531 0 8.691406 -0.421875 7.226562 -1.269531 C 5.757812 -2.113281 4.585938 -3.261719 3.707031 -4.714844 C 2.832031 -6.164062 2.390625 -7.785156 2.390625 -9.570312 L 2.390625 -33.492188 L 7.175781 -33.492188 L 7.175781 -9.570312 C 7.175781 -8.261719 7.648438 -7.136719 8.589844 -6.195312 C 9.53125 -5.253906 10.652344 -4.785156 11.960938 -4.785156 L 26.316406 -4.785156 C 27.625 -4.785156 28.75 -5.253906 29.691406 -6.195312 C 30.632812 -7.136719 31.101562 -8.261719 31.101562 -9.570312 Z M 31.101562 -9.570312 "/></g></g></g><g fill="#000000" fill-opacity="1"><g transform="translate(81.107714, 43.878569)"><g><path d="M 21.53125 -4.210938 L 7.175781 -24.929688 L 7.175781 0 L 2.390625 0 L 2.390625 -33.492188 L 7.175781 -33.492188 L 21.53125 -12.777344 L 35.886719 -33.492188 L 40.671875 -33.492188 L 40.671875 0 L 35.886719 0 L 35.886719 -24.929688 Z M 21.53125 -4.210938 "/></g></g></g><g fill="#000000" fill-opacity="1"><g transform="translate(127.033845, 43.878569)"><g><path d="M 2.390625 -33.492188 L 7.175781 -33.492188 L 7.175781 0 L 2.390625 0 Z M 2.390625 -33.492188 "/></g></g></g><g fill="#000000" fill-opacity="1"><g transform="translate(139.472927, 43.878569)"><g><path d="M 35.886719 -33.492188 L 35.886719 0 L 31.101562 0 L 7.175781 -25.742188 L 7.175781 0 L 2.390625 0 L 2.390625 -33.492188 L 7.175781 -33.492188 L 31.101562 -8.132812 L 31.101562 -33.492188 Z M 35.886719 -33.492188 "/></g></g></g></g></g></svg>