<svg xmlns="http://www.w3.org/2000/svg" xmlns:xlink="http://www.w3.org/1999/xlink" width="500" zoomAndPan="magnify" viewBox="0 0 375 374.999991" height="500" preserveAspectRatio="xMidYMid meet" version="1.0"><defs><g/><clipPath id="06eded441c"><path d="M 47.699219 74.265625 L 327.300781 74.265625 L 327.300781 353.867188 L 47.699219 353.867188 Z M 47.699219 74.265625 " clip-rule="nonzero"/></clipPath><clipPath id="a7ecbd356f"><path d="M 187.5 74.265625 C 110.289062 74.265625 47.699219 136.855469 47.699219 214.066406 C 47.699219 291.277344 110.289062 353.867188 187.5 353.867188 C 264.710938 353.867188 327.300781 291.277344 327.300781 214.066406 C 327.300781 136.855469 264.710938 74.265625 187.5 74.265625 Z M 187.5 74.265625 " clip-rule="nonzero"/></clipPath><clipPath id="2d6da93ce4"><path d="M 0.699219 0.265625 L 280.300781 0.265625 L 280.300781 279.867188 L 0.699219 279.867188 Z M 0.699219 0.265625 " clip-rule="nonzero"/></clipPath><clipPath id="2322e6d3a2"><path d="M 140.5 0.265625 C 63.289062 0.265625 0.699219 62.855469 0.699219 140.066406 C 0.699219 217.277344 63.289062 279.867188 140.5 279.867188 C 217.710938 279.867188 280.300781 217.277344 280.300781 140.066406 C 280.300781 62.855469 217.710938 0.265625 140.5 0.265625 Z M 140.5 0.265625 " clip-rule="nonzero"/></clipPath><clipPath id="1837ba47e7"><rect x="0" width="281" y="0" height="280"/></clipPath><clipPath id="dab9933447"><path d="M 0.535156 123 L 186.46875 123 L 186.46875 242 L 0.535156 242 Z M 0.535156 123 " clip-rule="nonzero"/></clipPath><clipPath id="ef536ec2c9"><path d="M 30 0.121094 L 96 0.121094 L 96 5 L 30 5 Z M 30 0.121094 " clip-rule="nonzero"/></clipPath><clipPath id="a5455068eb"><rect x="0" width="187" y="0" height="258"/></clipPath><clipPath id="12820af49f"><rect x="0" width="25" y="0" height="9"/></clipPath></defs><g clip-path="url(#06eded441c)"><g clip-path="url(#a7ecbd356f)"><g transform="matrix(1, 0, 0, 1, 47, 74)"><g clip-path="url(#1837ba47e7)"><g clip-path="url(#2d6da93ce4)"><g clip-path="url(#2322e6d3a2)"><path fill="#ffd809" d="M 0.699219 0.265625 L 280.300781 0.265625 L 280.300781 279.867188 L 0.699219 279.867188 Z M 0.699219 0.265625 " fill-opacity="1" fill-rule="nonzero"/></g></g></g></g></g></g><g transform="matrix(1, 0, 0, 1, 94, 21)"><g clip-path="url(#a5455068eb)"><path fill="#100f0d" d="M 93.578125 206.445312 C 81.867188 206.445312 72.347656 216.257812 72.347656 228.316406 C 72.347656 240.375 81.867188 250.179688 93.578125 250.179688 C 105.285156 250.179688 114.800781 240.375 114.800781 228.316406 C 114.800781 216.257812 105.285156 206.445312 93.578125 206.445312 Z M 93.578125 256.238281 C 78.542969 256.238281 66.3125 243.707031 66.3125 228.316406 C 66.3125 212.917969 78.542969 200.394531 93.578125 200.394531 C 108.609375 200.394531 120.839844 212.917969 120.839844 228.316406 C 120.839844 243.707031 108.609375 256.238281 93.578125 256.238281 " fill-opacity="1" fill-rule="nonzero"/><path fill="#100f0d" d="M 93.5 129.914062 C 91.835938 129.914062 90.484375 128.558594 90.484375 126.890625 L 90.484375 4.023438 C 90.484375 2.351562 91.835938 1 93.5 1 C 95.167969 1 96.519531 2.351562 96.519531 4.023438 L 96.519531 126.890625 C 96.519531 128.558594 95.167969 129.914062 93.5 129.914062 " fill-opacity="1" fill-rule="nonzero"/><g clip-path="url(#dab9933447)"><path fill="#100f0d" d="M 185.703125 227.679688 C 177.714844 202.183594 158.9375 167.503906 114.800781 147.066406 C 110.980469 145.296875 108.523438 141.371094 108.515625 137.066406 L 108.515625 136.65625 C 108.515625 129.605469 102.894531 123.863281 95.984375 123.863281 L 91.015625 123.863281 C 84.109375 123.863281 78.488281 129.605469 78.488281 136.65625 L 78.488281 137.066406 C 78.480469 141.371094 76.019531 145.296875 72.199219 147.058594 C 28.0625 167.503906 9.285156 202.183594 1.300781 227.679688 C 0.582031 229.976562 0.9375 232.449219 2.265625 234.46875 C 3.585938 236.453125 5.675781 237.71875 8.019531 237.941406 C 36.394531 240.609375 64.96875 241.949219 93.53125 241.949219 C 122.089844 241.949219 150.644531 240.609375 178.980469 237.941406 C 181.324219 237.71875 183.414062 236.453125 184.734375 234.46875 C 186.0625 232.449219 186.417969 229.976562 185.703125 227.679688 " fill-opacity="1" fill-rule="nonzero"/></g><g clip-path="url(#ef536ec2c9)"><path stroke-linecap="round" transform="matrix(1.184279, 0.000000000000000612, -0.000000000000000612, 1.184279, 30.148463, 0.133554)" fill="none" stroke-linejoin="miter" d="M 1.998821 2.001514 L 52.995681 2.001514 " stroke="#100f0d" stroke-width="4" stroke-opacity="1" stroke-miterlimit="4"/></g></g></g><g transform="matrix(1, 0, 0, 1, 175, 304)"><g clip-path="url(#12820af49f)"><g fill="#ffd809" fill-opacity="1"><g transform="translate(0.972988, 6.520149)"><g><path d="M 0.9375 -4.375 L 0.9375 -0.625 L 4.6875 -0.625 L 4.6875 0 L 0.3125 0 L 0.3125 -4.375 Z M 0.9375 -4.375 "/></g></g></g><g fill="#ffd809" fill-opacity="1"><g transform="translate(6.032472, 6.520149)"><g><path d="M 4.0625 -1.25 L 4.0625 -4.375 L 4.6875 -4.375 L 4.6875 -1.25 C 4.6875 -1.027344 4.628906 -0.824219 4.519531 -0.632812 C 4.410156 -0.445312 4.257812 -0.292969 4.070312 -0.175781 C 3.878906 -0.0585938 3.667969 0 3.4375 0 L 1.5625 0 C 1.339844 0 1.136719 -0.0546875 0.941406 -0.164062 C 0.75 -0.277344 0.597656 -0.425781 0.484375 -0.617188 C 0.371094 -0.804688 0.3125 -1.015625 0.3125 -1.25 L 0.3125 -4.375 L 0.9375 -4.375 L 0.9375 -1.25 C 0.9375 -1.078125 1 -0.933594 1.121094 -0.808594 C 1.246094 -0.6875 1.390625 -0.625 1.5625 -0.625 L 3.4375 -0.625 C 3.605469 -0.625 3.753906 -0.6875 3.875 -0.808594 C 4 -0.933594 4.0625 -1.078125 4.0625 -1.25 Z M 4.0625 -1.25 "/></g></g></g><g fill="#ffd809" fill-opacity="1"><g transform="translate(11.404262, 6.520149)"><g><path d="M 2.8125 -0.550781 L 0.9375 -3.253906 L 0.9375 0 L 0.3125 0 L 0.3125 -4.375 L 0.9375 -4.375 L 2.8125 -1.667969 L 4.6875 -4.375 L 5.308594 -4.375 L 5.308594 0 L 4.6875 0 L 4.6875 -3.253906 Z M 2.8125 -0.550781 "/></g></g></g><g fill="#ffd809" fill-opacity="1"><g transform="translate(17.400662, 6.520149)"><g><path d="M 0.3125 -4.375 L 0.9375 -4.375 L 0.9375 0 L 0.3125 0 Z M 0.3125 -4.375 "/></g></g></g><g fill="#ffd809" fill-opacity="1"><g transform="translate(19.024785, 6.520149)"><g><path d="M 4.6875 -4.375 L 4.6875 0 L 4.0625 0 L 0.9375 -3.359375 L 0.9375 0 L 0.3125 0 L 0.3125 -4.375 L 0.9375 -4.375 L 4.0625 -1.0625 L 4.0625 -4.375 Z M 4.6875 -4.375 "/></g></g></g></g></g></svg>