<svg xmlns="http://www.w3.org/2000/svg" xmlns:xlink="http://www.w3.org/1999/xlink" width="500" zoomAndPan="magnify" viewBox="0 0 375 374.999991" height="500" preserveAspectRatio="xMidYMid meet" version="1.0"><defs><g/><clipPath id="c07c2e5c10"><path d="M 41 11.507812 L 345 11.507812 L 345 138 L 41 138 Z M 41 11.507812 " clip-rule="nonzero"/></clipPath><clipPath id="3c56dd721b"><path d="M 11.949219 102 L 362.949219 102 L 362.949219 363.257812 L 11.949219 363.257812 Z M 11.949219 102 " clip-rule="nonzero"/></clipPath></defs><g clip-path="url(#c07c2e5c10)"><path fill="#2b33e7" d="M 62.769531 116.039062 C 87.527344 72.984375 133.992188 43.988281 187.21875 43.988281 C 249.0625 43.988281 301.761719 83.117188 321.914062 137.96875 C 328.0625 128.453125 334.191406 119.902344 340.710938 113.484375 L 344.765625 109.5 C 316.035156 51.550781 256.285156 11.703125 187.21875 11.703125 C 126.410156 11.703125 72.8125 42.597656 41.257812 89.539062 L 43.859375 92.152344 C 50.320312 98.664062 56.554688 106.871094 62.769531 116.039062 " fill-opacity="1" fill-rule="nonzero"/></g><g clip-path="url(#3c56dd721b)"><path fill="#1c23cd" d="M 362.789062 195.113281 C 362.839844 193.863281 362.886719 192.613281 362.914062 191.355469 C 362.945312 190.058594 362.964844 188.753906 362.964844 187.445312 C 362.964844 165.132812 358.796875 143.796875 351.214844 124.15625 C 328.457031 146.542969 304.851562 209.175781 279.96875 209.175781 C 254.4375 209.175781 233.292969 136.972656 207.765625 136.96875 C 179.691406 136.96875 156.429688 216.367188 128.359375 216.363281 C 95.140625 216.363281 63.625 133.304688 33.234375 102.707031 C 21.25 124.433594 13.734375 148.96875 11.917969 175.074219 C 40.570312 228.21875 95.09375 286.175781 128.359375 283.230469 C 173.0625 279.269531 185.222656 195.277344 216.320312 195.28125 C 238.824219 195.28125 258.429688 252.421875 279.96875 258.929688 C 291.386719 262.382812 304.0625 258.332031 316.472656 249.730469 C 293.289062 297.761719 244.128906 330.90625 187.21875 330.90625 C 140.710938 330.90625 99.378906 308.765625 73.167969 274.457031 C 50.46875 256.09375 28.652344 229.734375 12.339844 204.867188 C 21.082031 293.75 96.039062 363.1875 187.21875 363.1875 C 281.710938 363.1875 358.769531 288.617188 362.789062 195.121094 L 362.789062 195.113281 " fill-opacity="1" fill-rule="nonzero"/></g><g fill="#1c23cd" fill-opacity="1"><g transform="translate(92.093055, 245.274154)"><g><path d="M 5 0 L 3.234375 0 L 0.625 -11.421875 L 1.953125 -11.421875 L 4.09375 -1.984375 L 4.296875 -1.984375 L 6.859375 -11.421875 L 8.09375 -11.421875 L 10.65625 -1.984375 L 10.859375 -1.984375 L 13.015625 -11.421875 L 14.296875 -11.421875 L 11.6875 0 L 9.921875 0 L 7.546875 -8.65625 L 7.375 -8.65625 Z M 5 0 "/></g></g></g><g fill="#1c23cd" fill-opacity="1"><g transform="translate(106.745714, 245.274154)"><g><path d="M 8.21875 -4.015625 L 2.296875 -4.015625 C 2.328125 -2.972656 2.578125 -2.207031 3.046875 -1.71875 C 3.515625 -1.226562 4.15625 -0.984375 4.96875 -0.984375 C 5.582031 -0.984375 6.078125 -1.09375 6.453125 -1.3125 C 6.828125 -1.53125 7.117188 -1.875 7.328125 -2.34375 L 7.5 -2.34375 L 8.328125 -1.84375 C 8.078125 -1.21875 7.675781 -0.722656 7.125 -0.359375 C 6.570312 -0.00390625 5.851562 0.171875 4.96875 0.171875 C 4.132812 0.171875 3.414062 0.00390625 2.8125 -0.328125 C 2.21875 -0.660156 1.757812 -1.160156 1.4375 -1.828125 C 1.113281 -2.492188 0.953125 -3.320312 0.953125 -4.3125 C 0.953125 -5.289062 1.117188 -6.113281 1.453125 -6.78125 C 1.796875 -7.457031 2.265625 -7.957031 2.859375 -8.28125 C 3.453125 -8.613281 4.128906 -8.78125 4.890625 -8.78125 C 5.992188 -8.78125 6.851562 -8.46875 7.46875 -7.84375 C 8.09375 -7.226562 8.40625 -6.304688 8.40625 -5.078125 C 8.40625 -4.597656 8.394531 -4.273438 8.375 -4.109375 Z M 7.15625 -5.078125 C 7.132812 -5.992188 6.929688 -6.660156 6.546875 -7.078125 C 6.160156 -7.492188 5.609375 -7.703125 4.890625 -7.703125 C 4.128906 -7.703125 3.535156 -7.492188 3.109375 -7.078125 C 2.679688 -6.660156 2.421875 -5.992188 2.328125 -5.078125 Z M 7.15625 -5.078125 "/></g></g></g><g fill="#1c23cd" fill-opacity="1"><g transform="translate(115.93097, 245.274154)"><g><path d="M 5.734375 0.171875 C 5.085938 0.171875 4.53125 0.046875 4.0625 -0.203125 C 3.59375 -0.453125 3.21875 -0.78125 2.9375 -1.1875 L 2.78125 -1.15625 L 2.78125 0 L 1.5 0 L 1.5 -12.078125 L 2.78125 -12.078125 L 2.78125 -7.328125 L 2.9375 -7.296875 C 3.59375 -8.285156 4.546875 -8.78125 5.796875 -8.78125 C 6.503906 -8.78125 7.125 -8.613281 7.65625 -8.28125 C 8.1875 -7.957031 8.597656 -7.460938 8.890625 -6.796875 C 9.191406 -6.128906 9.34375 -5.300781 9.34375 -4.3125 C 9.34375 -3.332031 9.1875 -2.503906 8.875 -1.828125 C 8.5625 -1.160156 8.132812 -0.660156 7.59375 -0.328125 C 7.050781 0.00390625 6.429688 0.171875 5.734375 0.171875 Z M 5.421875 -0.984375 C 7.140625 -0.984375 8 -2.09375 8 -4.3125 C 8 -5.457031 7.773438 -6.296875 7.328125 -6.828125 C 6.878906 -7.367188 6.242188 -7.640625 5.421875 -7.640625 C 4.617188 -7.640625 3.976562 -7.363281 3.5 -6.8125 C 3.019531 -6.269531 2.78125 -5.4375 2.78125 -4.3125 C 2.78125 -3.1875 3.019531 -2.347656 3.5 -1.796875 C 3.976562 -1.253906 4.617188 -0.984375 5.421875 -0.984375 Z M 5.421875 -0.984375 "/></g></g></g><g fill="#1c23cd" fill-opacity="1"><g transform="translate(126.20971, 245.274154)"><g><path d="M 5.734375 0.171875 C 5.085938 0.171875 4.53125 0.046875 4.0625 -0.203125 C 3.59375 -0.453125 3.21875 -0.78125 2.9375 -1.1875 L 2.78125 -1.15625 L 2.78125 0 L 1.5 0 L 1.5 -12.078125 L 2.78125 -12.078125 L 2.78125 -7.328125 L 2.9375 -7.296875 C 3.59375 -8.285156 4.546875 -8.78125 5.796875 -8.78125 C 6.503906 -8.78125 7.125 -8.613281 7.65625 -8.28125 C 8.1875 -7.957031 8.597656 -7.460938 8.890625 -6.796875 C 9.191406 -6.128906 9.34375 -5.300781 9.34375 -4.3125 C 9.34375 -3.332031 9.1875 -2.503906 8.875 -1.828125 C 8.5625 -1.160156 8.132812 -0.660156 7.59375 -0.328125 C 7.050781 0.00390625 6.429688 0.171875 5.734375 0.171875 Z M 5.421875 -0.984375 C 7.140625 -0.984375 8 -2.09375 8 -4.3125 C 8 -5.457031 7.773438 -6.296875 7.328125 -6.828125 C 6.878906 -7.367188 6.242188 -7.640625 5.421875 -7.640625 C 4.617188 -7.640625 3.976562 -7.363281 3.5 -6.8125 C 3.019531 -6.269531 2.78125 -5.4375 2.78125 -4.3125 C 2.78125 -3.1875 3.019531 -2.347656 3.5 -1.796875 C 3.976562 -1.253906 4.617188 -0.984375 5.421875 -0.984375 Z M 5.421875 -0.984375 "/></g></g></g><g fill="#1c23cd" fill-opacity="1"><g transform="translate(136.324409, 245.274154)"><g><path d="M 1.734375 3.65625 C 1.441406 3.65625 1.164062 3.628906 0.90625 3.578125 C 0.65625 3.535156 0.441406 3.46875 0.265625 3.375 L 0.5 2.375 L 0.640625 2.328125 C 0.765625 2.390625 0.921875 2.441406 1.109375 2.484375 C 1.296875 2.523438 1.488281 2.546875 1.6875 2.546875 C 2.03125 2.546875 2.316406 2.5 2.546875 2.40625 C 2.773438 2.3125 2.972656 2.15625 3.140625 1.9375 C 3.304688 1.726562 3.457031 1.429688 3.59375 1.046875 L 3.90625 0.203125 L 0.4375 -8.625 L 1.8125 -8.625 L 4.53125 -1.59375 L 4.671875 -1.59375 L 7.296875 -8.625 L 8.609375 -8.625 L 4.75 1.359375 C 4.53125 1.910156 4.285156 2.351562 4.015625 2.6875 C 3.742188 3.019531 3.421875 3.265625 3.046875 3.421875 C 2.679688 3.578125 2.242188 3.65625 1.734375 3.65625 Z M 1.734375 3.65625 "/></g></g></g></svg>